<svg width="164" height="147" viewBox="0 0 164 147" fill="none" xmlns="http://www.w3.org/2000/svg">
<path d="M36.5498 216.112L7.51677e-05 120.897L46.3844 76.0642L52.4633 91.9004L85.9749 60.8668L95.0933 84.6211L158.438 60.3053L194.912 155.323L36.5498 216.112ZM95.6548 157.084L111.491 151.005L99.3331 119.333L83.4969 125.412L95.6548 157.084ZM63.9824 169.242L79.8186 163.163L67.6607 131.491L51.8245 137.57L63.9824 169.242ZM127.327 144.926L143.163 138.848L131.006 107.175L115.169 113.254L127.327 144.926ZM152.295 49.0361L115.674 63.0936L102.648 9.0424L126.204 -4.62359e-05L152.295 49.0361Z" fill="white" fill-opacity="0.1"/>
</svg>
