<svg width="162" height="126" viewBox="0 0 162 126" fill="none" xmlns="http://www.w3.org/2000/svg">
<path d="M97.1265 113.263C89.7764 116.084 81.6066 115.87 74.4143 112.668C67.222 109.466 61.5964 103.537 58.7749 96.1873C55.9535 88.8373 56.1675 80.6675 59.3697 73.4752C62.5719 66.2829 68.5001 60.6572 75.8501 57.8358C83.2002 55.0144 91.37 55.2283 98.5623 58.4306C105.755 61.6328 111.38 67.561 114.202 74.911C117.023 82.2611 116.809 90.4309 113.607 97.6232C110.405 104.815 104.477 110.441 97.1265 113.263ZM148.268 70.6464C147.612 67.9911 146.877 65.3661 145.874 62.7531C144.871 60.1401 143.63 57.6183 142.28 55.0478L154.033 35.728C155.082 33.9627 154.657 31.6729 153.038 30.2956L126.685 8.97794C125.066 7.6007 122.655 7.70873 121.187 9.09005L104.51 24.5765C99.2072 23.0689 93.898 22.0181 88.1497 21.9534L77.1654 2.09504C76.6465 1.22417 75.8362 0.565068 74.8779 0.234528C73.9195 -0.0960126 72.8752 -0.0766524 71.9298 0.289175L40.2573 12.4471C38.2778 13.207 37.1621 15.2705 37.5749 17.2924L42.6998 39.4C38.4712 43.2944 35.2289 47.6279 32.2969 52.2965L9.5413 51.9467C7.52577 51.9027 5.66143 53.436 5.37994 55.5427L0.0603164 89.0183C-0.300352 91.1554 0.995395 93.111 2.95576 93.7212L24.6173 100.214C25.334 103.028 26.0995 105.732 27.1025 108.345C28.1055 110.958 29.3157 113.401 30.6051 115.813L18.9434 135.37C17.8949 137.136 18.2405 139.456 19.9385 140.803L46.2913 162.12C47.9101 163.498 50.2912 163.31 51.79 162.008L68.4362 146.443C73.7694 148.029 79.0786 149.08 84.8269 149.145L95.8112 169.003C96.8574 170.782 99.0673 171.569 101.047 170.809L132.719 158.651C134.699 157.891 135.814 155.828 135.402 153.806L130.277 131.698C134.475 127.725 137.748 123.47 140.649 118.723L163.435 119.152C165.42 119.116 167.315 117.662 167.597 115.556L172.916 82.0801C173.198 79.9733 171.981 77.9874 170.021 77.3772L148.268 70.6464Z" fill="white" fill-opacity="0.1"/>
</svg>
