<svg width="115" height="115" viewBox="0 0 115 115" fill="none" xmlns="http://www.w3.org/2000/svg">
<rect x="28.4863" y="28.4863" width="58.0275" height="58.0275" rx="29.0138" fill="#204194"/>
<rect x="13.7156" y="13.7148" width="87.5688" height="87.5688" rx="43.7844" fill="#132478" fill-opacity="0.5"/>
<rect width="115" height="115" rx="57.5" fill="#132478" fill-opacity="0.1"/>
<path d="M58.0275 43.959C61.3853 43.959 64.6055 45.2929 66.9799 47.6672C69.3542 50.0415 70.688 53.2617 70.688 56.6195C70.688 60.9438 68.3304 64.4831 65.8461 67.0223C64.6049 68.2772 63.2506 69.4149 61.8003 70.4209L61.2011 70.8289L60.9197 71.016L60.3894 71.3536L59.9167 71.642L59.3315 71.9824C58.9343 72.2091 58.4849 72.3284 58.0275 72.3284C57.5701 72.3284 57.1207 72.2091 56.7235 71.9824L56.1383 71.642L55.4068 71.1918L55.1367 71.016L54.5599 70.632C52.9954 69.5734 51.5381 68.3644 50.2089 67.0223C47.7246 64.4817 45.3669 60.9438 45.3669 56.6195C45.3669 53.2617 46.7008 50.0415 49.0751 47.6672C51.4494 45.2929 54.6697 43.959 58.0275 43.959ZM58.0275 52.3994C57.4733 52.3994 56.9245 52.5085 56.4125 52.7206C55.9005 52.9327 55.4353 53.2435 55.0434 53.6354C54.6515 54.0273 54.3406 54.4925 54.1286 55.0045C53.9165 55.5166 53.8073 56.0653 53.8073 56.6195C53.8073 57.1737 53.9165 57.7225 54.1286 58.2345C54.3406 58.7465 54.6515 59.2118 55.0434 59.6037C55.4353 59.9955 55.9005 60.3064 56.4125 60.5185C56.9245 60.7306 57.4733 60.8397 58.0275 60.8397C59.1468 60.8397 60.2202 60.3951 61.0116 59.6037C61.8031 58.8122 62.2477 57.7388 62.2477 56.6195C62.2477 55.5003 61.8031 54.4269 61.0116 53.6354C60.2202 52.844 59.1468 52.3994 58.0275 52.3994Z" fill="white"/>
</svg>
