<svg width="32" height="32" viewBox="0 0 32 32" fill="none" xmlns="http://www.w3.org/2000/svg">
<path d="M15.6606 2C19.0183 2 22.2386 3.33388 24.6129 5.70819C26.9872 8.0825 28.3211 11.3028 28.3211 14.6606C28.3211 18.9848 25.9634 22.5242 23.4791 25.0633C22.2379 26.3182 20.8836 27.4559 19.4334 28.462L18.8341 28.8699L18.5528 29.057L18.0224 29.3946L17.5498 29.683L16.9646 30.0234C16.5674 30.2501 16.1179 30.3694 15.6606 30.3694C15.2032 30.3694 14.7537 30.2501 14.3565 30.0234L13.7713 29.683L13.0398 29.2328L12.7697 29.057L12.193 28.673C10.6284 27.6144 9.17118 26.4055 7.84196 25.0633C5.35768 22.5228 3 18.9848 3 14.6606C3 11.3028 4.33388 8.0825 6.70819 5.70819C9.0825 3.33388 12.3028 2 15.6606 2ZM15.6606 10.4404C15.1063 10.4404 14.5576 10.5495 14.0456 10.7616C13.5335 10.9737 13.0683 11.2845 12.6764 11.6764C12.2845 12.0683 11.9737 12.5335 11.7616 13.0456C11.5495 13.5576 11.4404 14.1063 11.4404 14.6606C11.4404 15.2148 11.5495 15.7635 11.7616 16.2755C11.9737 16.7876 12.2845 17.2528 12.6764 17.6447C13.0683 18.0366 13.5335 18.3474 14.0456 18.5595C14.5576 18.7716 15.1063 18.8807 15.6606 18.8807C16.7798 18.8807 17.8532 18.4361 18.6447 17.6447C19.4361 16.8532 19.8807 15.7798 19.8807 14.6606C19.8807 13.5413 19.4361 12.4679 18.6447 11.6764C17.8532 10.885 16.7798 10.4404 15.6606 10.4404Z" fill="white"/>
</svg>
