<svg width="0" height="0" class="hidden">
  <symbol fill="none" xmlns="http://www.w3.org/2000/svg" viewBox="0 0 32 32" id="chevron-up">
    <g clip-path="url(#clip0_688_119)">
      <path d="M1 24L16 9L31 24" stroke="currentColor" stroke-width="3"></path>
    </g>
    <defs>
      <clipPath id="clip0_688_119">
        <rect width="32" height="32" fill="currentColor"></rect>
      </clipPath>
    </defs>
  </symbol>
  <symbol fill="none" xmlns="http://www.w3.org/2000/svg" viewBox="0 0 32 32" id="chevron-down">
    <g clip-path="url(#clip0_688_121)">
      <path d="M31 8L16 23L1 8" stroke="currentColor" stroke-width="3"></path>
    </g>
    <defs>
      <clipPath id="clip0_688_121">
        <rect width="32" height="32" fill="currentColor"></rect>
      </clipPath>
    </defs>
  </symbol>
  <symbol fill="none" xmlns="http://www.w3.org/2000/svg" viewBox="0 0 24 24" id="arrow-bottom">
    <path d="M11.2929 19.7071C11.6834 20.0976 12.3166 20.0976 12.7071 19.7071L19.0711 13.3431C19.4616 12.9526 19.4616 12.3195 19.0711 11.9289C18.6805 11.5384 18.0474 11.5384 17.6569 11.9289L12 17.5858L6.34315 11.9289C5.95262 11.5384 5.31946 11.5384 4.92893 11.9289C4.53841 12.3195 4.53841 12.9526 4.92893 13.3431L11.2929 19.7071ZM12 4L11 4L11 19L12 19L13 19L13 4L12 4Z" fill="currentColor"></path>
  </symbol>
  <symbol fill="none" xmlns="http://www.w3.org/2000/svg" viewBox="0 0 24 24" id="arrow-btn">
    <path d="M23.7071 12.7071C24.0976 12.3166 24.0976 11.6834 23.7071 11.2929L17.3431 4.92893C16.9526 4.53841 16.3195 4.53841 15.9289 4.92893C15.5384 5.31946 15.5384 5.95262 15.9289 6.34315L21.5858 12L15.9289 17.6569C15.5384 18.0474 15.5384 18.6805 15.9289 19.0711C16.3195 19.4616 16.9526 19.4616 17.3431 19.0711L23.7071 12.7071ZM0 12L-8.74228e-08 13L23 13L23 12L23 11L8.74228e-08 11L0 12Z" fill="currentColor"></path>
  </symbol>
  <symbol fill="none" xmlns="http://www.w3.org/2000/svg" viewBox="0 0 24 24" id="telegram">
    <path fill-rule="evenodd" clip-rule="evenodd" d="M20.7212 2.12998C20.9917 2.01489 21.2877 1.97519 21.5786 2.01503C21.8694 2.05487 22.1443 2.17277 22.3748 2.35649C22.6052 2.5402 22.7827 2.78299 22.8889 3.05961C22.995 3.33622 23.0259 3.63653 22.9782 3.92929L20.4957 19.1526C20.2549 20.621 18.6611 21.4631 17.329 20.7316C16.2147 20.1197 14.5597 19.1769 13.0711 18.1931C12.3267 17.7007 10.0467 16.1238 10.3269 15.0018C10.5677 14.0424 14.3988 10.4371 16.588 8.29365C17.4472 7.45154 17.0554 6.96575 16.0407 7.74036C13.5209 9.6636 9.47532 12.5883 8.13772 13.4116C6.95775 14.1375 6.34259 14.2615 5.60702 14.1375C4.26505 13.9118 3.0205 13.5621 2.00471 13.1361C0.632094 12.5606 0.698864 10.6529 2.00362 10.0974L20.7212 2.12998Z" fill="currentColor"></path>
  </symbol>
  <symbol fill="none" xmlns="http://www.w3.org/2000/svg" viewBox="0 0 24 24" id="whatsapp">
    <path d="M12.5 2C18.2992 2 23 6.477 23 12C23 17.523 18.2992 22 12.5 22C10.6444 22.003 8.82142 21.5353 7.21851 20.645L2.00422 22L3.42382 17.032C2.48822 15.5049 1.99676 13.768 2.00002 12C2.00002 6.477 6.70086 2 12.5 2ZM8.92161 7.3L8.71161 7.308C8.57584 7.31691 8.44318 7.35087 8.32101 7.408C8.20717 7.46951 8.1032 7.54629 8.01231 7.636C7.88631 7.749 7.81491 7.847 7.73826 7.942C7.34989 8.4229 7.14078 9.01331 7.14396 9.61999C7.14606 10.11 7.28046 10.587 7.49046 11.033C7.91991 11.935 8.62656 12.89 9.55896 13.775C9.78366 13.988 10.0042 14.202 10.2415 14.401C11.4001 15.3724 12.7807 16.073 14.2735 16.447L14.8699 16.534C15.0641 16.544 15.2584 16.53 15.4537 16.521C15.7594 16.5056 16.0579 16.4268 16.3283 16.29C16.4657 16.2223 16.5999 16.1489 16.7305 16.07C16.7305 16.07 16.7749 16.0413 16.8617 15.98C17.0035 15.88 17.0906 15.809 17.2082 15.692C17.2964 15.6053 17.3699 15.5047 17.4287 15.39C17.5106 15.227 17.5925 14.916 17.6261 14.657C17.6513 14.459 17.644 14.351 17.6408 14.284C17.6366 14.177 17.5432 14.066 17.4413 14.019L16.8302 13.758C16.8302 13.758 15.9167 13.379 15.3581 13.137C15.2996 13.1127 15.237 13.0989 15.1733 13.096C15.1015 13.0888 15.0288 13.0965 14.9604 13.1184C14.8919 13.1403 14.8291 13.176 14.7764 13.223C14.7712 13.221 14.7008 13.278 13.9417 14.154C13.8981 14.2098 13.8381 14.2519 13.7693 14.275C13.7004 14.2982 13.6259 14.3013 13.5553 14.284C13.4868 14.2666 13.4198 14.2446 13.3547 14.218C13.2245 14.166 13.1794 14.146 13.0901 14.11C12.4873 13.8599 11.9293 13.5215 11.4364 13.107C11.3041 12.997 11.1812 12.877 11.0552 12.761C10.6422 12.3842 10.2821 11.958 9.98421 11.493L9.92226 11.398C9.87844 11.3338 9.8425 11.265 9.81516 11.193C9.77526 11.046 9.87921 10.928 9.87921 10.928C9.87921 10.928 10.1344 10.662 10.253 10.518C10.3685 10.378 10.4662 10.242 10.5292 10.145C10.6531 9.95499 10.6919 9.75999 10.6268 9.60899C10.3328 8.92499 10.029 8.24466 9.71541 7.568C9.65346 7.434 9.46971 7.338 9.30276 7.319C9.24606 7.31233 9.18936 7.307 9.13266 7.303C8.99168 7.29529 8.85031 7.29663 8.70951 7.307L8.92161 7.3Z" fill="currentColor"></path>
  </symbol>
  <symbol fill="none" xmlns="http://www.w3.org/2000/svg" viewBox="0 0 32 32" id="map-pin">
    <path d="M15.6606 2C19.0183 2 22.2386 3.33388 24.6129 5.70819C26.9872 8.0825 28.3211 11.3028 28.3211 14.6606C28.3211 18.9848 25.9634 22.5242 23.4791 25.0633C22.2379 26.3182 20.8836 27.4559 19.4334 28.462L18.8341 28.8699L18.5528 29.057L18.0224 29.3946L17.5498 29.683L16.9646 30.0234C16.5674 30.2501 16.1179 30.3694 15.6606 30.3694C15.2032 30.3694 14.7537 30.2501 14.3565 30.0234L13.7713 29.683L13.0398 29.2328L12.7697 29.057L12.193 28.673C10.6284 27.6144 9.17118 26.4055 7.84196 25.0633C5.35768 22.5228 3 18.9848 3 14.6606C3 11.3028 4.33388 8.0825 6.70819 5.70819C9.0825 3.33388 12.3028 2 15.6606 2ZM15.6606 10.4404C15.1063 10.4404 14.5576 10.5495 14.0456 10.7616C13.5335 10.9737 13.0683 11.2845 12.6764 11.6764C12.2845 12.0683 11.9737 12.5335 11.7616 13.0456C11.5495 13.5576 11.4404 14.1063 11.4404 14.6606C11.4404 15.2148 11.5495 15.7635 11.7616 16.2755C11.9737 16.7876 12.2845 17.2528 12.6764 17.6447C13.0683 18.0366 13.5335 18.3474 14.0456 18.5595C14.5576 18.7716 15.1063 18.8807 15.6606 18.8807C16.7798 18.8807 17.8532 18.4361 18.6447 17.6447C19.4361 16.8532 19.8807 15.7798 19.8807 14.6606C19.8807 13.5413 19.4361 12.4679 18.6447 11.6764C17.8532 10.885 16.7798 10.4404 15.6606 10.4404Z" fill="currentColor"></path>
  </symbol>
  <symbol fill="none" xmlns="http://www.w3.org/2000/svg" viewBox="0 0 32 32" id="arrow-left">
    <path d="M3.89011 17.1112C3.27639 16.4975 3.27639 15.5025 3.89011 14.8888L13.8912 4.88764C14.505 4.27392 15.5 4.27392 16.1137 4.88764C16.7274 5.50136 16.7274 6.49639 16.1137 7.11011L7.22382 16L16.1137 24.8899C16.7274 25.5036 16.7274 26.4986 16.1137 27.1124C15.5 27.7261 14.505 27.7261 13.8912 27.1124L3.89011 17.1112ZM28.5742 16V17.5715H5.00134V16V14.4285H28.5742V16Z" fill="currentColor"></path>
  </symbol>
  <symbol fill="none" xmlns="http://www.w3.org/2000/svg" viewBox="0 0 32 32" id="arrow-right">
    <path d="M28.6841 17.1112C29.2978 16.4975 29.2978 15.5025 28.6841 14.8888L18.683 4.88764C18.0693 4.27392 17.0742 4.27392 16.4605 4.88764C15.8468 5.50136 15.8468 6.49639 16.4605 7.11011L25.3504 16L16.4605 24.8899C15.8468 25.5036 15.8468 26.4986 16.4605 27.1124C17.0742 27.7261 18.0693 27.7261 18.683 27.1124L28.6841 17.1112ZM4 16V17.5715H27.5729V16V14.4285H4V16Z" fill="currentColor"></path>
  </symbol>
  <symbol fill="none" xmlns="http://www.w3.org/2000/svg" viewBox="0 0 32 32" id="arrow-top-right">
    <path d="M26.2401 8.00334C26.2401 7.13541 25.5365 6.43181 24.6685 6.43181L10.5248 6.43181C9.65689 6.43181 8.95329 7.13541 8.95329 8.00334C8.95329 8.87127 9.65689 9.57486 10.5248 9.57486L23.097 9.57486L23.097 22.1471C23.097 23.015 23.8006 23.7186 24.6685 23.7186C25.5365 23.7186 26.2401 23.015 26.2401 22.1471L26.2401 8.00334ZM8 24.6719L9.11124 25.7831L25.7798 9.11457L24.6685 8.00334L23.5573 6.8921L6.88876 23.5606L8 24.6719Z" fill="currentColor"></path>
  </symbol>
  <symbol fill="none" xmlns="http://www.w3.org/2000/svg" viewBox="0 0 32 32" id="close">
    <path d="M6 7L16 16.5M26 26L16 16.5M16 16.5L26 7L6 26" stroke="currentColor" stroke-width="3"></path>
  </symbol>
  <symbol fill="none" xmlns="http://www.w3.org/2000/svg" viewBox="0 0 32 32" id="play">
    <path d="M25.9227 12.8375C26.5 13.1444 26.9828 13.6027 27.3195 14.1631C27.6562 14.7235 27.8341 15.3649 27.8341 16.0187C27.8341 16.6725 27.6562 17.314 27.3195 17.8744C26.9828 18.4348 26.5 18.893 25.9227 19.2L10.5248 27.5732C8.04545 28.9228 5 27.1681 5 24.3931V7.64553C5 4.8693 8.04545 3.11582 10.5248 4.46308L25.9227 12.8375Z" fill="currentColor"></path>
  </symbol>
</svg>