<svg width="24" height="24" viewBox="0 0 24 24" fill="none" xmlns="http://www.w3.org/2000/svg">
<path fill-rule="evenodd" clip-rule="evenodd" d="M20.7212 2.12998C20.9917 2.01489 21.2877 1.97519 21.5786 2.01503C21.8694 2.05487 22.1443 2.17277 22.3748 2.35649C22.6052 2.5402 22.7827 2.78299 22.8889 3.05961C22.995 3.33622 23.0259 3.63653 22.9782 3.92929L20.4957 19.1526C20.2549 20.621 18.6611 21.4631 17.329 20.7316C16.2147 20.1197 14.5597 19.1769 13.0711 18.1931C12.3267 17.7007 10.0467 16.1238 10.3269 15.0018C10.5677 14.0424 14.3988 10.4371 16.588 8.29365C17.4472 7.45154 17.0554 6.96575 16.0407 7.74036C13.5209 9.6636 9.47532 12.5883 8.13772 13.4116C6.95775 14.1375 6.34259 14.2615 5.60702 14.1375C4.26505 13.9118 3.0205 13.5621 2.00471 13.1361C0.632094 12.5606 0.698864 10.6529 2.00362 10.0974L20.7212 2.12998Z" fill="#204194"/>
</svg>
