<svg width="24" height="24" viewBox="0 0 24 24" fill="none" xmlns="http://www.w3.org/2000/svg">
<path d="M12.5 2C18.2992 2 23 6.477 23 12C23 17.523 18.2992 22 12.5 22C10.6444 22.003 8.82142 21.5353 7.21851 20.645L2.00422 22L3.42382 17.032C2.48822 15.5049 1.99676 13.768 2.00002 12C2.00002 6.477 6.70086 2 12.5 2ZM8.92161 7.3L8.71161 7.308C8.57584 7.31691 8.44318 7.35087 8.32101 7.408C8.20717 7.46951 8.1032 7.54629 8.01231 7.636C7.88631 7.749 7.81491 7.847 7.73826 7.942C7.34989 8.4229 7.14078 9.01331 7.14396 9.61999C7.14606 10.11 7.28046 10.587 7.49046 11.033C7.91991 11.935 8.62656 12.89 9.55896 13.775C9.78366 13.988 10.0042 14.202 10.2415 14.401C11.4001 15.3724 12.7807 16.073 14.2735 16.447L14.8699 16.534C15.0641 16.544 15.2584 16.53 15.4537 16.521C15.7594 16.5056 16.0579 16.4268 16.3283 16.29C16.4657 16.2223 16.5999 16.1489 16.7305 16.07C16.7305 16.07 16.7749 16.0413 16.8617 15.98C17.0035 15.88 17.0906 15.809 17.2082 15.692C17.2964 15.6053 17.3699 15.5047 17.4287 15.39C17.5106 15.227 17.5925 14.916 17.6261 14.657C17.6513 14.459 17.644 14.351 17.6408 14.284C17.6366 14.177 17.5432 14.066 17.4413 14.019L16.8302 13.758C16.8302 13.758 15.9167 13.379 15.3581 13.137C15.2996 13.1127 15.237 13.0989 15.1733 13.096C15.1015 13.0888 15.0288 13.0965 14.9604 13.1184C14.8919 13.1403 14.8291 13.176 14.7764 13.223C14.7712 13.221 14.7008 13.278 13.9417 14.154C13.8981 14.2098 13.8381 14.2519 13.7693 14.275C13.7004 14.2982 13.6259 14.3013 13.5553 14.284C13.4868 14.2666 13.4198 14.2446 13.3547 14.218C13.2245 14.166 13.1794 14.146 13.0901 14.11C12.4873 13.8599 11.9293 13.5215 11.4364 13.107C11.3041 12.997 11.1812 12.877 11.0552 12.761C10.6422 12.3842 10.2821 11.958 9.98421 11.493L9.92226 11.398C9.87844 11.3338 9.8425 11.265 9.81516 11.193C9.77526 11.046 9.87921 10.928 9.87921 10.928C9.87921 10.928 10.1344 10.662 10.253 10.518C10.3685 10.378 10.4662 10.242 10.5292 10.145C10.6531 9.95499 10.6919 9.75999 10.6268 9.60899C10.3328 8.92499 10.029 8.24466 9.71541 7.568C9.65346 7.434 9.46971 7.338 9.30276 7.319C9.24606 7.31233 9.18936 7.307 9.13266 7.303C8.99168 7.29529 8.85031 7.29663 8.70951 7.307L8.92161 7.3Z" fill="#204194"/>
</svg>
