<svg width="105" height="42" viewBox="0 0 105 42" fill="none" xmlns="http://www.w3.org/2000/svg">
<g clip-path="url(#clip0_37_18)">
<path fill-rule="evenodd" clip-rule="evenodd" d="M73.1998 20.1898C73.1998 20.1898 69.8411 21.4103 71.7603 22.9757C73.6529 24.5676 76.8517 19.8184 82.9827 23.2941C82.9561 23.2941 80.0772 18.0142 73.1998 20.1898Z" fill="#D507D3"/>
<path fill-rule="evenodd" clip-rule="evenodd" d="M16.3664 21.2516C17.6192 21.1455 18.8721 21.9415 19.1653 23.1885C19.4585 24.4885 18.6055 25.8417 17.1128 26.1335C15.46 26.4519 14.0206 25.3376 13.9406 23.8783C13.834 22.4986 14.9536 21.3578 16.3664 21.2516Z" fill="#6622CC"/>
<path fill-rule="evenodd" clip-rule="evenodd" d="M0 8.27832C0.0266565 13.7174 4.15842 16.4501 8.23686 16.4501C11.1957 16.4501 14.2346 15.1766 15.4075 11.8336C15.9672 10.2682 15.9672 8.7559 15.8606 7.16398H8.26352V10.6927H11.6756C10.9292 12.2316 9.88957 12.6561 8.23686 12.6561C5.81112 12.6561 4.23839 10.9315 4.23839 8.27832C4.23839 5.83739 5.65118 3.82096 8.23686 3.82096C9.86291 3.82096 10.9292 4.37813 11.5956 5.73126H15.6207C14.8477 1.75147 11.4623 0.0799633 8.23686 0.0799633C4.15842 0.0799633 0.0266565 2.81275 0 8.27832ZM28.7357 16.2644H32.7609V15.6542L25.5103 0.0799633H23.751L16.527 15.6542V16.2379H20.5255L21.4585 14.2215H27.8027L28.7357 16.2644ZM26.4699 10.7458H22.818L24.6306 6.55375L26.4699 10.7458ZM37.1325 11.3826H33.1607C33.0807 18.4135 46.1424 18.3074 46.1424 11.5948C46.1424 7.58849 43.0236 7.11092 39.8248 6.766C38.3854 6.60681 37.1858 6.36802 37.2658 5.14756C37.3991 3.26379 41.7174 3.07807 41.7174 5.20062H45.6093C45.6893 -1.69767 33.214 -1.69767 33.3473 5.20062C33.4006 8.6763 35.6931 9.87024 39.1851 10.109C40.7845 10.1886 42.1173 10.4539 42.1173 11.5683C42.1706 13.4255 37.1325 13.399 37.1325 11.3826ZM57.9246 11.0642V7.4293H52.7799V3.92709H58.6177V0.265687H48.6215V16.2379H52.7799V11.0642H57.9246ZM76.6641 8.27832C76.6641 -2.78548 60.1904 -2.78548 60.1904 8.27832C60.1904 19.3687 76.6641 19.3687 76.6641 8.27832ZM64.4288 8.27832C64.4288 2.5209 72.479 2.5209 72.479 8.27832C72.479 14.0888 64.4288 14.0888 64.4288 8.27832ZM89.6192 10.5866C93.671 7.85381 92.5247 0.292219 86.2072 0.265687H79.1698V16.2379H83.2749V11.5417H85.4075L88.1531 16.2379H92.7647V15.6542L89.6192 10.5866ZM86.2072 7.93341H83.2749V3.92709C84.2346 3.92709 85.2475 3.90056 86.2072 3.92709C88.5529 3.95362 88.4463 7.93341 86.2072 7.93341ZM97.0297 3.92709V16.2644H101.081V3.92709H105V0.265687H93.0579V3.92709H97.0297Z" fill="white"/>
<path fill-rule="evenodd" clip-rule="evenodd" d="M102.467 22.3132C102.467 22.3132 101.215 39.9834 74.7179 35.1015C41.6639 29.0257 46.4621 23.454 26.6563 30.2197C4.87789 37.6486 3.17188 24.5684 3.17188 24.5684C3.17188 24.5684 10.9023 32.3422 24.4171 27.3012C29.9883 25.2317 37.1323 19.4477 46.1155 19.5804C58.4308 19.7661 56.9914 31.1748 72.5055 31.3075C81.6486 31.3871 91.5382 23.6132 91.8314 23.6663C91.9114 23.6928 102.254 20.96 102.467 22.3132Z" fill="url(#paint0_linear_37_18)"/>
<path fill-rule="evenodd" clip-rule="evenodd" d="M8.13011 34.1749C8.13011 34.1749 17.4332 40.1977 29.2421 34.5994C39.4782 29.7441 44.0631 30.9646 48.5147 32.0789C57.6846 34.3872 63.3357 42.957 75.8376 38.8711C80.7958 37.2526 81.5155 30.0094 81.5155 30.0094C81.5155 30.0094 69.8666 20.5906 57.7912 27.9399L44.9428 26.9848L34.3868 28.9481C34.3868 28.9481 13.8879 36.8016 4.26491 24.7296C3.89172 24.252 2.79881 24.1989 2.50558 23.9071C1.59926 23.0315 1.22607 22.209 1.1461 22.607C0.586316 25.5255 2.5589 30.7258 8.13011 34.1749Z" fill="url(#paint1_linear_37_18)"/>
<path fill-rule="evenodd" clip-rule="evenodd" d="M4.87915 28.9989C4.87915 28.9989 12.183 35.6053 24.2584 32.1296C35.9073 28.7866 39.7192 27.2478 48.0094 28.5478C57.8723 30.0601 61.7375 39.6912 69.8677 39.7973C76.9317 39.9035 79.7573 37.1442 85.5417 30.5112C89.167 26.3722 92.9256 22.6843 101.056 22.4455C103.881 22.3659 102.335 21.6761 98.7367 21.4903C94.4184 21.2781 86.8213 21.9414 79.9705 27.5927C67.9485 37.5421 60.7779 18.678 33.3483 27.6988C15.4085 33.5889 8.98425 28.707 2.10687 22.9231C0.347544 21.4373 1.6004 24.1966 1.6004 24.1966C1.6004 24.1966 3.17313 27.5131 4.87915 28.9989Z" fill="url(#paint2_linear_37_18)"/>
<path fill-rule="evenodd" clip-rule="evenodd" d="M91.9918 36.4824C93.4046 36.4294 94.6574 37.4641 94.844 38.8703C95.004 40.25 94.1243 41.5765 92.7648 41.9215C91.2987 42.3194 89.8059 41.4439 89.4061 39.9846C89.3794 39.8785 89.3528 39.7724 89.3528 39.6928C89.1129 38.1805 90.1525 36.7743 91.6719 36.5355C91.7785 36.4824 91.8852 36.4824 91.9918 36.4824Z" fill="#FADD2E"/>
<path fill-rule="evenodd" clip-rule="evenodd" d="M34.7076 35.4717C34.7076 35.4717 31.5621 38.4698 35.0008 39.3454C38.706 40.3005 40.7586 33.8798 51.6611 39.0801C51.6611 39.1066 42.1714 29.449 34.7076 35.4717Z" fill="#781ECD"/>
</g>
<defs>
<linearGradient id="paint0_linear_37_18" x1="51.3866" y1="19.185" x2="56.6855" y2="35.57" gradientUnits="userSpaceOnUse">
<stop stop-color="#F9C540"/>
<stop offset="1" stop-color="#FAE925"/>
</linearGradient>
<linearGradient id="paint1_linear_37_18" x1="45.3734" y1="21.4679" x2="34.0635" y2="38.9653" gradientUnits="userSpaceOnUse">
<stop stop-color="#811CCE"/>
<stop offset="0.682" stop-color="#F500D5"/>
<stop offset="1" stop-color="#F500D5"/>
</linearGradient>
<linearGradient id="paint2_linear_37_18" x1="102.503" y1="30.962" x2="1.19108" y2="29.1852" gradientUnits="userSpaceOnUse">
<stop stop-color="#5409EA"/>
<stop offset="0.49" stop-color="#FD00F7"/>
<stop offset="1" stop-color="#FD00F7"/>
</linearGradient>
<clipPath id="clip0_37_18">
<rect width="105" height="42" fill="white"/>
</clipPath>
</defs>
</svg>
