<svg width="172" height="58" viewBox="0 0 172 58" fill="none" xmlns="http://www.w3.org/2000/svg">
<path fill-rule="evenodd" clip-rule="evenodd" d="M120.685 4.5929L98.4126 31.5584H107.116L126.829 4.5929H120.685Z" fill="#939395"/>
<path fill-rule="evenodd" clip-rule="evenodd" d="M126.828 4.5929L107.116 31.5584H109.916L127.861 7.09092L126.828 4.5929Z" fill="#AEAEAE"/>
<path fill-rule="evenodd" clip-rule="evenodd" d="M137.525 3.06201L117.55 31.5585H126.254L143.669 3.06201H137.525Z" fill="#142659"/>
<path fill-rule="evenodd" clip-rule="evenodd" d="M143.669 3.06201L126.254 31.5585H129.054L144.702 5.56004L143.669 3.06201Z" fill="#233A7A"/>
<path fill-rule="evenodd" clip-rule="evenodd" d="M155.514 0L138.983 31.5585H147.688L161.658 0H155.514Z" fill="#224299"/>
<path fill-rule="evenodd" clip-rule="evenodd" d="M161.659 0L147.688 31.5585H150.488L162.691 2.49803L161.659 0Z" fill="#16358B"/>
<path fill-rule="evenodd" clip-rule="evenodd" d="M159.597 13.141L166.158 31.5584H170.51L162.429 4.92212L159.597 13.141Z" fill="#224299"/>
<path fill-rule="evenodd" clip-rule="evenodd" d="M142.657 10.5758L146.119 17.936L148.309 13.7559L145.196 6.3999L142.657 10.5758Z" fill="#142659"/>
<path fill-rule="evenodd" clip-rule="evenodd" d="M152.905 31.5305L155.566 31.5022L154.172 28.2112L152.905 31.5305Z" fill="#142659"/>
<path fill-rule="evenodd" clip-rule="evenodd" d="M124.901 11.7156L127.278 16.931L129.936 13.3302L127.658 7.94604L124.901 11.7156Z" fill="#939395"/>
<path fill-rule="evenodd" clip-rule="evenodd" d="M132.438 27.5176L134.173 31.529L138.467 31.5613L134.963 23.2369L132.438 27.5176Z" fill="#939395"/>
<path d="M29.8027 57.4419H35.3075L36.7501 54.2683H46.7387L48.2703 57.4419H53.7528L44.9188 39.4897H38.5037L29.8027 57.4419ZM41.7003 43.6556L44.8965 50.3997H38.5927L41.7003 43.6556Z" fill="#193B92"/>
<path d="M76.5186 39.5307H64.4687L58.5842 39.4359L58.5232 45.7652V49.674C58.5232 50.8115 58.3377 51.6242 57.9679 52.1106C57.5982 52.597 56.9639 52.8407 56.0654 52.8407V57.4419C58.8535 57.4419 60.6997 56.9886 61.605 56.0815C62.5099 55.1744 62.9493 53.4344 62.9228 50.8614V47.1999L62.9439 44.0586L65.5392 43.984H72.119V57.4419H76.5186V39.5307Z" fill="#193B92"/>
<path d="M79.5576 51.1719C79.5576 52.4875 79.7131 53.5605 80.024 54.3908C80.3349 55.2211 80.79 55.8787 81.3899 56.364C81.9897 56.849 82.7161 57.1817 83.569 57.3626C84.4216 57.5436 85.3905 57.6341 86.4746 57.6341H94.2369C95.4509 57.6341 96.4336 57.4944 97.1853 57.2147C97.937 56.9351 98.5224 56.5528 98.9417 56.0679C99.361 55.5829 99.6465 55.0154 99.7983 54.366C99.9502 53.7166 100.026 53.0138 100.026 52.2571V50.58H95.2125C95.2125 51.1393 95.1655 51.5791 95.0715 51.8997C94.9774 52.2206 94.8223 52.4672 94.6051 52.6395C94.3883 52.8121 94.0993 52.9233 93.7378 52.9725C93.3767 53.0217 92.9284 53.0465 92.3935 53.0465H87.255C86.6915 53.0465 86.2287 52.9808 85.8673 52.8494C85.5061 52.7176 85.224 52.5123 85.0219 52.2327C84.8194 51.953 84.6819 51.583 84.6098 51.1228C84.5376 50.6623 84.5014 50.1115 84.5014 49.4701V47.5464C84.5014 46.9875 84.5412 46.4899 84.6206 46.0541C84.7003 45.6184 84.8482 45.2444 85.0653 44.9321C85.2818 44.6198 85.5855 44.3811 85.9757 44.2167C86.3662 44.0523 86.8792 43.97 87.5153 43.97H92.7622C93.4851 43.97 94.0416 44.0853 94.4318 44.3154C94.8223 44.5459 95.0172 44.9812 95.0172 45.6227V46.116H99.8306C99.8453 44.8499 99.7728 43.7892 99.6138 42.9345C99.4551 42.0795 99.1079 41.3887 98.5731 40.8625C98.0382 40.3362 97.2578 39.9579 96.2315 39.7278C95.2052 39.4977 93.8392 39.3824 92.1337 39.3824H86.4746C85.3905 39.3824 84.4216 39.473 83.569 39.6539C82.7161 39.8348 81.9897 40.1679 81.3899 40.6528C80.79 41.1378 80.3349 41.7998 80.024 42.6384C79.7131 43.4769 79.5576 44.5458 79.5576 45.8445V51.1719Z" fill="#193B92"/>
<path d="M102.448 44.0045H109.404V57.4089H113.804V44.0045H120.48V39.5695H102.448V44.0045Z" fill="#193B92"/>
<path d="M123.089 57.4624H141.175V53.1176H127.668V50.2206H140.99V46.4749H127.668V43.5781H141.048V39.3828H123.089V57.4624Z" fill="#193B92"/>
<path d="M144.002 57.4707H149.11V44.5954H149.157L156.039 57.4707H159.964L166.845 44.5954H166.892V57.4707H172V39.5439H163.936L158.001 51.0826L152.066 39.5439H144.002V57.4707Z" fill="#193B92"/>
<path d="M11.5289 50.3158H6.39322C5.83933 50.3158 5.44478 50.1276 5.21074 49.7514C4.97597 49.3748 4.85892 48.9194 4.85892 48.3838V47.6813C4.85892 47.0625 5.00111 46.5858 5.28505 46.2512C5.56899 45.9167 6.07364 45.7494 6.79803 45.7494H11.5289V50.3158ZM16.0464 45.7494H20.7776C21.502 45.7494 22.0064 45.9167 22.2903 46.2512C22.5746 46.5858 22.7167 47.0625 22.7167 47.6813V48.3838C22.7167 48.9194 22.5994 49.3748 22.3653 49.7514C22.1306 50.1276 21.7364 50.3158 21.1826 50.3158H16.0464V45.7494ZM16.0464 57.4868V54.8323H23.2282C24.0664 54.8323 24.7624 54.6567 25.3167 54.3049C25.8706 53.9539 26.3147 53.498 26.6485 52.9376C26.9823 52.3773 27.2204 51.7545 27.3625 51.0685C27.5043 50.3829 27.5754 49.6969 27.5754 49.0113V47.4556C27.5754 46.5689 27.4939 45.7455 27.3305 44.9845C27.1668 44.2231 26.8793 43.5669 26.4672 43.0148C26.0551 42.4627 25.4873 42.0279 24.7625 41.7099C24.0381 41.3922 23.1145 41.2333 21.9921 41.2333H5.5833C4.46118 41.2333 3.53764 41.3922 2.81325 41.7099C2.0885 42.0279 1.52018 42.4627 1.10844 43.0148C0.696352 43.5669 0.408496 44.2231 0.245526 44.9845C0.0818383 45.7455 0 46.5689 0 47.4556V49.0113C0 49.6969 0.0711255 50.3829 0.213275 51.0685C0.355067 51.7545 0.593441 52.3773 0.927279 52.9376C1.26112 53.498 1.70507 53.9539 2.25895 54.3049C2.81319 54.6567 3.50928 54.8323 4.34782 54.8323H11.5289V57.4868H16.0464Z" fill="#193B92"/>
<path fill-rule="evenodd" clip-rule="evenodd" d="M11.5381 39.4535H16.0463V43.6462H11.5381V39.4535Z" fill="#193B92"/>
</svg>
