<svg width="282" height="95" viewBox="0 0 282 95" fill="none" xmlns="http://www.w3.org/2000/svg">
<path fill-rule="evenodd" clip-rule="evenodd" d="M197.866 7.53027L161.351 51.7412H175.621L207.94 7.53027H197.866Z" fill="white"/>
<path fill-rule="evenodd" clip-rule="evenodd" d="M207.94 7.53027L175.621 51.7412H180.212L209.633 11.6259L207.94 7.53027Z" fill="white"/>
<path fill-rule="evenodd" clip-rule="evenodd" d="M225.477 5.02148L192.727 51.7424H206.997L235.551 5.02148H225.477Z" fill="white"/>
<path fill-rule="evenodd" clip-rule="evenodd" d="M235.551 5.02148L206.997 51.7424H211.588L237.243 9.11709L235.551 5.02148Z" fill="white"/>
<path fill-rule="evenodd" clip-rule="evenodd" d="M254.971 0L227.868 51.7412H242.139L265.045 0H254.971Z" fill="white"/>
<path fill-rule="evenodd" clip-rule="evenodd" d="M265.044 0L242.139 51.7412H246.73L266.737 4.09561L265.044 0Z" fill="white"/>
<path fill-rule="evenodd" clip-rule="evenodd" d="M261.665 21.5445L272.423 51.7405H279.558L266.309 8.06934L261.665 21.5445Z" fill="white"/>
<path fill-rule="evenodd" clip-rule="evenodd" d="M233.892 17.3407L239.568 29.408L243.158 22.5545L238.055 10.4941L233.892 17.3407Z" fill="white"/>
<path fill-rule="evenodd" clip-rule="evenodd" d="M250.694 51.6941L255.056 51.6476L252.771 46.252L250.694 51.6941Z" fill="white"/>
<path fill-rule="evenodd" clip-rule="evenodd" d="M204.779 19.2086L208.676 27.7594L213.035 21.8559L209.3 13.0283L204.779 19.2086Z" fill="white"/>
<path fill-rule="evenodd" clip-rule="evenodd" d="M217.137 45.1169L219.981 51.6938L227.021 51.7467L221.276 38.0986L217.137 45.1169Z" fill="white"/>
<path d="M48.8633 94.1793H57.8886L60.2537 88.976H76.6304L79.1416 94.1793H88.1303L73.6466 64.7461H63.1288L48.8633 94.1793ZM68.3698 71.5761L73.61 82.6334H63.2748L68.3698 71.5761Z" fill="white"/>
<path d="M125.455 64.8126H105.699L96.0513 64.6572L95.9513 75.0343V81.4429C95.9513 83.308 95.6471 84.6403 95.0409 85.4378C94.4347 86.2353 93.3947 86.6349 91.9216 86.6349V94.1787C96.4928 94.1787 99.5196 93.4355 101.004 91.9482C102.488 90.461 103.208 87.6083 103.164 83.3897V77.3866L103.199 72.2362L107.454 72.1139H118.242V94.1787H125.455V64.8126Z" fill="white"/>
<path d="M130.438 83.8986C130.438 86.0556 130.693 87.8148 131.203 89.1761C131.712 90.5374 132.459 91.6155 133.442 92.4112C134.425 93.2063 135.617 93.7519 137.015 94.0485C138.413 94.3451 140.001 94.4936 141.779 94.4936H154.505C156.496 94.4936 158.107 94.2644 159.339 93.806C160.572 93.3475 161.531 92.7208 162.219 91.9256C162.906 91.1305 163.374 90.2 163.623 89.1354C163.872 88.0707 163.996 86.9184 163.996 85.6777V82.9282H156.105C156.105 83.8451 156.028 84.5662 155.874 85.0917C155.719 85.6179 155.465 86.0222 155.109 86.3047C154.753 86.5878 154.28 86.77 153.687 86.8507C153.095 86.9313 152.36 86.9721 151.483 86.9721H143.058C142.134 86.9721 141.376 86.8642 140.783 86.6488C140.191 86.4328 139.728 86.0962 139.397 85.6377C139.065 85.1793 138.839 84.5726 138.721 83.8181C138.603 83.063 138.543 82.16 138.543 81.1083V77.9544C138.543 77.038 138.609 76.2223 138.739 75.5078C138.87 74.7933 139.112 74.1802 139.468 73.6682C139.823 73.1562 140.321 72.7648 140.961 72.4952C141.601 72.2257 142.442 72.0909 143.485 72.0909H152.087C153.273 72.0909 154.185 72.2798 154.825 72.6571C155.465 73.0349 155.785 73.7487 155.785 74.8004V75.6092H163.676C163.7 73.5334 163.581 71.7944 163.321 70.3931C163.061 68.9912 162.491 67.8587 161.614 66.9959C160.738 66.1331 159.458 65.5128 157.775 65.1356C156.093 64.7583 153.853 64.5693 151.057 64.5693H141.779C140.001 64.5693 138.413 64.7178 137.015 65.0144C135.617 65.311 134.425 65.8571 133.442 66.6522C132.459 67.4473 131.712 68.5327 131.203 69.9075C130.693 71.2824 130.438 73.0348 130.438 75.1641V83.8986Z" fill="white"/>
<path d="M167.967 72.1474H179.372V94.1243H186.586V72.1474H197.531V64.876H167.967V72.1474Z" fill="white"/>
<path d="M201.809 94.2115H231.462V87.0879H209.316V82.3383H231.158V76.197H209.316V71.4476H231.252V64.5693H201.809V94.2115Z" fill="white"/>
<path d="M236.097 94.2256H244.472V73.116H244.549L255.831 94.2256H262.267L273.548 73.116H273.626V94.2256H282V64.834H268.78L259.048 83.7519L249.318 64.834H236.097V94.2256Z" fill="white"/>
<path d="M18.9021 82.4956H10.4819C9.57379 82.4956 8.92691 82.187 8.54318 81.5702C8.15828 80.9529 7.96637 80.2062 7.96637 79.3281V78.1763C7.96637 77.1616 8.1995 76.3801 8.66503 75.8316C9.13056 75.2831 9.95795 75.0088 11.1456 75.0088H18.9021V82.4956ZM26.3087 75.0088H34.0656C35.2533 75.0088 36.0802 75.2831 36.5457 75.8316C37.0118 76.3801 37.2448 77.1616 37.2448 78.1763V79.3281C37.2448 80.2062 37.0524 80.9529 36.6687 81.5702C36.2838 82.187 35.6377 82.4956 34.7295 82.4956H26.3087V75.0088ZM26.3087 94.2527V89.9005H38.0835C39.4577 89.9005 40.5989 89.6127 41.5076 89.0359C42.4157 88.4603 43.1438 87.7129 43.6911 86.7942C44.2385 85.8755 44.6287 84.8544 44.8618 83.7297C45.0942 82.6056 45.2108 81.481 45.2108 80.3569V77.8061C45.2108 76.3525 45.0771 75.0024 44.8094 73.7547C44.541 72.5064 44.0695 71.4305 43.3939 70.5253C42.7182 69.6202 41.7873 68.9074 40.599 68.3859C39.4114 67.8651 37.8971 67.6045 36.0567 67.6045H9.15402C7.31426 67.6045 5.80008 67.8651 4.61241 68.3859C3.42416 68.9074 2.49238 69.6202 1.81733 70.5253C1.14169 71.4305 0.669744 72.5064 0.402549 73.7547C0.134177 75.0024 0 76.3525 0 77.8061V80.3569C0 81.481 0.116613 82.6056 0.349673 83.7297C0.582144 84.8544 0.972968 85.8755 1.52031 86.7942C2.06764 87.7129 2.79552 88.4603 3.70363 89.0359C4.61233 89.6127 5.75358 89.9005 7.1284 89.9005H18.9021V94.2527H26.3087Z" fill="white"/>
<path fill-rule="evenodd" clip-rule="evenodd" d="M18.917 64.6865H26.3084V71.5607H18.917V64.6865Z" fill="white"/>
</svg>
