<svg width="178" height="847" viewBox="0 0 178 847" fill="none" xmlns="http://www.w3.org/2000/svg">
<path d="M174.225 692.777L83.6963 693.021L157.388 736.944L157.388 758.417L85.6484 802.339L174.225 802.339L174.225 846.749L3.41609 846.749L3.41609 806.975L101.997 746.948L3.41608 688.385L3.41608 648.611L174.225 648.123L174.225 692.777ZM136.891 474.656L174.225 474.656L174.225 611.792L3.41608 611.792L3.41608 477.829L40.75 477.829L40.75 563.965L69.5436 563.965L69.5436 488.077L105.657 488.077L105.657 563.965L136.891 563.965L136.891 474.656ZM3.41607 284.618L174.225 284.618L174.225 332.933L107.61 332.933L107.61 398.816L174.225 398.816L174.225 447.131L3.41607 447.131L3.41607 398.816L67.5915 398.816L67.5915 332.933L3.41607 332.933L3.41607 284.618ZM-0.000120822 91.9928C-0.000121583 74.5866 3.82274 58.8884 11.4685 44.8983C19.1142 30.9083 29.6881 19.9277 43.1902 11.9566C56.6922 3.98552 71.9023 -2.20307e-05 88.8206 -2.27702e-05C105.739 -2.35098e-05 120.949 3.98552 134.451 11.9566C147.953 19.9277 158.527 30.9083 166.173 44.8983C173.818 58.8884 177.641 74.5866 177.641 91.9928C177.641 107.284 174.713 121.356 168.857 134.207C163 146.896 154.785 157.47 144.211 165.929C133.638 174.225 121.518 179.756 107.854 182.522L107.854 200.335L174.225 200.335L174.225 247.917L3.41607 247.917L3.41606 200.335L67.3474 200.335L67.3474 182.034C54.0081 178.943 42.2954 173.168 32.2096 164.709C21.961 156.25 14.0713 145.757 8.54034 133.231C2.8467 120.705 -0.000120168 106.959 -0.000120822 91.9928ZM137.623 91.9928C137.623 83.8591 135.59 76.5387 131.523 70.0317C127.456 63.5247 121.762 58.4004 114.442 54.6589C107.122 50.7547 98.5811 48.8026 88.8206 48.8026C79.06 48.8026 70.5196 50.7547 63.1992 54.6589C55.8788 58.4004 50.1852 63.5247 46.1183 70.0317C42.0514 76.5387 40.018 83.8591 40.018 91.9928C40.018 100.127 42.0514 107.528 46.1183 114.198C50.0225 120.705 55.7162 125.911 63.1992 129.815C70.5196 133.556 79.06 135.427 88.8206 135.427C98.5811 135.427 107.203 133.556 114.686 129.815C122.006 125.911 127.7 120.705 131.767 114.198C135.671 107.528 137.623 100.127 137.623 91.9928Z" fill="white"/>
</svg>
