<svg width="71" height="92" viewBox="0 0 71 92" fill="none" xmlns="http://www.w3.org/2000/svg">
<g clip-path="url(#clip0_684_97)">
<path d="M0.0742188 0H71.0004V70.8584H0.0742188V0Z" fill="#F63D37"/>
<path d="M63.1652 13.4598L55.2097 26.2938C54.3329 27.7474 54.4713 28.8698 54.8682 29.9646L66.9676 60.8214H16.8625C12.3586 60.8214 8.88848 57.2242 8.88848 52.9278L8.85156 11.8682C8.96231 6.56898 16.7148 6.47698 16.8625 11.8498V50.3334C16.844 51.5478 17.9238 52.9278 19.3267 52.891H56.0311L46.5435 30.6086C46.2758 29.753 46.1282 28.9066 46.1282 28.051C46.1282 27.1034 46.5435 25.613 47.1526 24.3802L55.8649 10.065C56.511 8.77698 57.8215 7.90298 59.3628 7.84778C61.5501 7.75578 63.4052 9.24618 63.4882 11.537C63.5067 12.0062 63.3867 13.009 63.1652 13.4598Z" fill="white"/>
<path d="M35.5322 39.3929V11.8481C35.5322 6.4753 43.3954 6.4385 43.4877 11.8481V39.6965C43.4877 46.0537 38.6978 50.2765 32.8742 50.2765C27.0229 50.2765 22.2422 45.9617 22.2422 39.6965V11.8481C22.2422 6.4753 30.1793 6.4753 30.1793 11.8481V39.3929C30.1793 43.0821 35.5322 43.3121 35.5322 39.3929Z" fill="white"/>
<path d="M0 77.3438H3.95008V88.0433H8.18627V91.4105H0V77.3438Z" fill="#020A0A"/>
<path d="M9.78125 85.7342V77.3438H13.7313V85.6329C13.7313 86.5069 13.879 88.4389 15.9925 88.4389C18.0783 88.4389 18.2536 86.5069 18.2536 85.6329V77.3438H22.2037V85.7342C22.2037 87.2338 21.8807 91.8062 15.9925 91.8062C10.1043 91.8062 9.78125 87.2246 9.78125 85.7342Z" fill="#020A0A"/>
<path d="M24.7617 77.3438H28.7118V83.2502L32.9665 77.3438H37.5995L32.2466 84.1609L37.7564 91.4105H32.8188L28.7118 85.3753V91.4105H24.7617V77.3438Z" fill="#020A0A"/>
<path d="M55.6797 77.3438H59.6298V91.4105H55.6797V77.3438Z" fill="#020A0A"/>
<path d="M62.5352 77.3438H66.4852V88.0433H70.7214V91.4105H62.5352V77.3438Z" fill="#020A0A"/>
<path fill-rule="evenodd" clip-rule="evenodd" d="M37.8867 84.3947C37.8867 80.5491 40.3786 76.8047 45.6577 76.8047C50.9368 76.8047 53.4102 80.5491 53.4102 84.3947C53.4102 88.2403 50.946 92.0031 45.6577 92.0031C40.3694 92.0031 37.8867 88.2403 37.8867 84.3947ZM49.2386 84.3947C49.2386 81.6347 47.5312 80.2455 45.6485 80.2455C43.7657 80.2455 42.0583 81.6255 42.0583 84.3947C42.0583 87.1731 43.7657 88.5439 45.6485 88.5439C47.5312 88.5347 49.2386 87.1731 49.2386 84.3947Z" fill="#020A0A"/>
</g>
<defs>
<clipPath id="clip0_684_97">
<rect width="71" height="92" fill="white"/>
</clipPath>
</defs>
</svg>
