<svg width="266" height="31" viewBox="0 0 266 31" fill="none" xmlns="http://www.w3.org/2000/svg">
<g clip-path="url(#clip0_684_141)">
<path d="M13.5044 24.8795C8.75565 22.6212 5.54057 18.6091 4.59668 14.3375C4.12974 11.9212 4.96171 10.3321 5.50298 9.44824C6.08936 8.48534 6.8119 8.42867 6.8119 8.42867C6.8119 8.42867 6.07349 8.0679 5.087 7.91672C3.84824 7.72775 2.23026 7.86605 1.20785 9.47574C0.446891 11.3088 0.0133703 13.3299 0 15.4507C0.0225599 19.5178 1.51775 24.2258 6.07349 27.9657C7.34483 28.932 8.7615 29.6982 10.2918 30.2188C10.4989 30.2883 10.7186 30.3485 10.9283 30.4069C11.5982 30.5984 12.2531 30.7359 12.8887 30.8355C12.933 30.8381 12.9823 30.8501 13.0307 30.8561C13.2279 30.8827 13.42 30.9016 13.6113 30.9231C13.9003 30.9523 14.1876 30.9764 14.4783 30.9858C14.6253 30.991 14.7673 30.9953 14.9118 30.9953C14.957 30.9987 15.0104 30.9987 15.063 30.9987C15.337 30.9987 15.6152 30.991 15.8858 30.9764C15.895 30.9729 15.9008 30.9729 15.9008 30.9729C16.1815 30.9618 16.4588 30.9326 16.7295 30.8999C16.7646 30.8973 16.7921 30.8922 16.8222 30.8905C17.0527 30.8595 17.2808 30.8252 17.5038 30.7857C17.6441 30.7608 17.7794 30.7359 17.9064 30.7101C17.9298 30.7041 17.9498 30.7024 17.9732 30.6946C20.495 30.1569 22.5891 28.9853 24.1962 27.7742C25.1318 27.0295 25.9813 26.1756 26.718 25.2325C23.0226 27.0509 18.101 27.0647 13.5044 24.8795Z" fill="#035597"/>
<path d="M5.4232 6.83304C8.01181 3.45993 11.9912 1.25583 16.4868 1.25583C19.8163 1.25583 22.8769 2.44464 25.2884 4.42196C22.6054 1.83649 18.9927 0.25 15.0192 0.25C9.76176 0.25 5.14671 3.02442 2.45703 7.22905C3.21549 6.87858 4.31392 6.63637 5.4232 6.83304Z" fill="#035597"/>
<path d="M14.2479 23.7234C16.1206 24.8246 18.1813 25.4345 20.2211 25.632C21.0773 25.4156 21.8959 25.0943 22.6193 24.6726C25.5078 22.8189 34.0413 10.6483 34.0413 10.6483C34.0413 10.6483 29.3953 9.66566 27.3797 11.186C25.3591 12.7013 23.8489 15.1089 21.6136 17.7047C19.3767 20.3013 18.3935 21.9342 16.418 22.4479C14.9521 22.8318 13.5604 22.7674 12.3125 22.4805C12.9114 22.9005 13.5504 23.3128 14.2479 23.7234Z" fill="#035597"/>
<path d="M28.0433 24.2716C29.8292 22.9342 34.0024 17.0873 34.0024 17.0873C34.0024 17.0873 30.7998 15.3616 27.893 17.0873C24.9844 18.8241 25.0713 19.2639 22.1837 21.7076C19.3019 24.1557 17.1434 24.4288 15.553 24.3034C15.4645 24.3 15.3776 24.2811 15.2891 24.2742C19.4514 26.2618 24.8658 26.5874 28.0433 24.2716Z" fill="#E3061C"/>
<path d="M33.9874 0.251703C33.9874 0.251703 29.415 -1.03844 25.7405 2.22303C23.1018 4.5697 17.4158 20.311 12.9428 21.2009C12.0757 21.3761 11.3783 21.395 10.8086 21.3237C10.8178 21.3332 10.8245 21.3409 10.8337 21.3452C11.5863 21.4165 12.4575 21.3899 13.4649 21.1889C17.9346 20.299 23.8477 5.7671 26.5858 3.53981C29.3264 1.32283 32.6017 1.87258 32.6017 1.87258L29.841 6.89834L33.9874 0.251703Z" fill="#035597"/>
<path d="M46.9041 28.6366L49.3206 9.49122H40.8164L45.074 2.59375H65.4078L64.585 9.49122H57.6887L55.2713 28.6366H46.9041Z" fill="#104B8F"/>
<path d="M244.917 28.7694L247.334 9.62404H239.922L240.745 2.72656H265.999L261.75 9.62404H255.702L253.285 28.7694H244.917Z" fill="#104B8F"/>
<path d="M191.336 28.7068L194.561 2.74219H215.186L214.368 9.54173H202.178L201.736 12.7929L213.92 12.7405L213.183 18.6089L201.01 18.6604L200.569 21.9065H212.776L211.957 28.7068H191.336Z" fill="#104B8F"/>
<path d="M106.585 28.8084L106.131 24.2894L97.9696 24.3908L96.5312 28.8084H87.9844L96.7476 4.12789C97.0065 3.39604 97.8318 2.84375 98.6687 2.84375H110.913C111.78 2.84375 112.423 3.36254 112.475 4.10469L115.143 28.8084H106.585ZM100.37 17.8094H105.435L104.66 10.6465H102.98L100.37 17.8094Z" fill="#104B8F"/>
<path d="M130.78 28.8075L127.092 17.8086L125.712 28.8075H117.285L120.51 2.84375H128.934L132.526 14.6064L134.003 2.84375H142.896L139.67 28.8075H130.78Z" fill="#104B8F"/>
<path d="M214.699 28.7068L217.924 2.74219H238.549L234.342 9.54173H225.541L225.1 12.7929L233.727 12.7405L233.027 18.6089L224.374 18.6604L223.121 28.7068H214.699Z" fill="#104B8F"/>
<path d="M88.4023 4.11812C87.6271 3.19645 86.4026 2.66818 85.0435 2.66818L68.2172 2.64844L65.9368 24.2384L65.3438 28.5933H73.7862L74.5697 22.4337H76.3096L78.0496 28.8527H85.9131L84.0788 22.2173C86.0626 21.6383 87.6689 19.9616 87.9303 17.992L89.2334 7.10214C89.3796 5.98807 89.0848 4.92898 88.4023 4.11812ZM76.0265 10.7905L76.1968 9.50552H80.6181L79.868 14.8869C79.8204 15.2554 79.4838 15.556 79.1179 15.556H75.3916L76.0265 10.7905Z" fill="#104B8F"/>
<path d="M162.254 15.0558C159.905 14.1513 152.807 11.3992 152.807 11.3992C152.886 10.8074 152.939 10.4097 152.947 10.3298L153.002 9.77062L153.546 9.77406C153.546 9.77406 156.894 9.79982 157.344 9.79982H157.887L157.638 11.443H166.01L166.438 7.85513C166.862 4.23118 163.664 2.94531 160.798 2.94531H151.69C149.916 2.94531 148.134 3.6471 146.8 4.87027C145.634 5.94051 144.899 7.32688 144.729 8.78196C144.729 8.78196 144.508 10.4956 144.311 12.1482C144.039 14.4288 144.677 15.8228 146.827 16.7093C151.08 18.4616 156.505 20.4767 156.505 20.4767C156.477 20.7413 156.459 20.9105 156.454 20.9474L156.381 21.4834L151.593 21.4765L151.727 19.8454H143.325L142.935 23.0407C142.584 26.2738 145.077 28.91 148.495 28.91H157.603C159.359 28.91 161.132 28.203 162.465 26.9704C163.638 25.8847 164.363 24.4288 164.528 23.045C164.528 23.045 164.926 19.7878 164.993 19.2226C165.241 17.1491 164.603 15.9603 162.254 15.0558Z" fill="#104B8F"/>
<path d="M179.887 28.6513L176.283 17.6523L174.903 28.6513H166.477L169.702 2.6875H178.126L181.633 14.4501L183.11 2.6875H192.003L188.777 28.6513H179.887Z" fill="#104B8F"/>
</g>
<defs>
<clipPath id="clip0_684_141">
<rect width="266" height="31" fill="white"/>
</clipPath>
</defs>
</svg>
