<svg width="136" height="106" viewBox="0 0 136 106" fill="none" xmlns="http://www.w3.org/2000/svg">
<g clip-path="url(#clip0_684_109)">
<path d="M59.7169 0V6.56518H52.7401V13.1438H45.6953V19.8708H38.6641V42.249C38.6641 42.249 51.0673 53.4786 52.8353 55.0828V78.917H83.2721V55.2176C85.0265 53.5999 97.3481 42.2221 97.3481 42.2221V19.8573H90.3577V13.1843H83.2721V6.57866H76.1865V0H59.7169Z" fill="white"/>
<path d="M63.8649 44.2188H57.8945V73.7014H63.8649V44.2188Z" fill="#FFD100"/>
<path d="M70.9352 38.1406H64.9648V73.7031H70.9352V38.1406Z" fill="#FFD100"/>
<path d="M77.9959 44.2188H72.0391V73.7014H77.9959V44.2188Z" fill="#FFD100"/>
<path d="M49.7224 45.3774L43.7656 40.1199V25.0078H49.7224V45.3774Z" fill="#1D1D1B"/>
<path d="M56.7927 51.9416L50.8359 46.1448V18.3203H56.7927V51.9416Z" fill="#1D1D1B"/>
<path d="M63.8649 11.7578H57.8945V43.2895H63.8649V11.7578Z" fill="#1D1D1B"/>
<path d="M70.9352 5.17969H64.9648V36.8327H70.9352V5.17969Z" fill="#1D1D1B"/>
<path d="M86.1836 45.3774L92.1404 40.1199V25.0078H86.1836V45.3774Z" fill="#1D1D1B"/>
<path d="M79.1094 51.9416L85.0662 46.1448V18.3203H79.1094V51.9416Z" fill="#1D1D1B"/>
<path d="M77.9959 11.7578H72.0391V43.2895H77.9959V11.7578Z" fill="#1D1D1B"/>
<path d="M76.7575 106H72.1743V96.7925C72.1743 95.9567 71.9975 95.35 71.6439 94.9726C71.2903 94.5951 70.5151 94.4064 69.3183 94.4064H66.7479C65.6327 94.4064 64.8847 94.6086 64.5039 95.0265C64.1231 95.4444 63.9463 96.0241 63.9463 96.7925V106.013H59.3359V95.3096C59.3359 93.8537 59.7303 92.7752 60.5191 92.0472C61.3079 91.3327 62.7087 90.9688 64.7351 90.9688H71.4399C73.4799 90.9688 74.8807 91.3462 75.6287 92.0877C76.3767 92.8291 76.7575 93.9076 76.7575 95.3096V106Z" fill="#1D1D1B"/>
<path d="M83.8843 100.117C83.8979 100.912 84.0883 101.505 84.4691 101.923C84.8363 102.327 85.5707 102.543 86.6859 102.543H96.5731V105.94H84.7003C82.7011 105.94 81.3003 105.59 80.5251 104.862C79.7499 104.147 79.3555 103.069 79.3555 101.626V95.277C79.3555 93.8345 79.7499 92.756 80.5251 92.0415C81.3003 91.3271 82.6875 90.9766 84.7003 90.9766H96.5731V94.3872H86.6859C85.5843 94.3872 84.8499 94.5894 84.4691 95.0073C84.1019 95.4118 83.8979 95.978 83.8843 96.7059H96.5595V100.117H83.8843Z" fill="#1D1D1B"/>
<path d="M32.6118 96.7222C32.6118 95.8864 32.435 95.2932 32.0814 94.9023C31.7278 94.5248 30.9526 94.3361 29.7558 94.3361H27.199C26.0838 94.3361 25.3358 94.5383 24.955 94.9562C24.5742 95.3741 24.3974 95.9538 24.3974 96.7222V100.146C24.3974 100.901 24.5878 101.494 24.955 101.912C25.3358 102.33 26.0702 102.532 27.199 102.532H29.7694C30.9798 102.532 31.7414 102.344 32.0678 101.966C32.3942 101.589 32.5846 100.982 32.6118 100.173V96.7222ZM36.0662 104.851C35.3182 105.593 33.9174 105.97 31.8774 105.97H25.1726C23.1462 105.97 21.7454 105.606 20.9566 104.892C20.1678 104.177 19.7734 103.085 19.7734 101.629V95.2393C19.7734 93.7833 20.1678 92.7049 20.9566 91.9769C21.7454 91.2624 23.1462 90.8984 25.1726 90.8984H31.8774C33.9174 90.8984 35.3182 91.2759 36.0662 92.0173C36.8142 92.7588 37.195 93.8373 37.195 95.2393V101.629C37.195 103.031 36.8142 104.11 36.0662 104.851Z" fill="#1D1D1B"/>
<path d="M103.685 100.092V105.957H99.1288L99.1016 95.2393C99.1016 93.7833 99.496 92.7049 100.285 91.9769C101.074 91.2624 102.474 90.8984 104.501 90.8984H116.523V94.3226H106.527C105.412 94.3226 104.664 94.5248 104.283 94.9427C103.902 95.3606 103.712 95.9268 103.698 96.6548H116.523V100.079H103.685" fill="#1D1D1B"/>
<path d="M124.904 94.3382H118.621V90.9141H136.002V94.3382H129.46V105.972H124.904V94.3382Z" fill="#1D1D1B"/>
<path d="M4.5016 94.3894H11.1656C11.9952 94.3894 12.6752 95.0634 12.6752 95.8857C12.6752 96.7081 11.9952 97.3821 11.1656 97.3821H4.5016V94.3894ZM17.5168 105.956L12.444 100.779C14.1848 100.725 15.3816 100.361 16.0616 99.6873C16.796 98.9459 17.1768 97.8809 17.1768 96.4789V95.2926C17.1768 93.9041 16.8096 92.8391 16.0616 92.0976C15.3136 91.3562 13.94 90.9922 11.9136 90.9922H0V105.956H4.5016V100.793H7.3304L12.3896 105.956H17.5168Z" fill="#1D1D1B"/>
<path d="M55.7197 97.7858C55.0397 97.0983 53.8021 96.7343 52.0341 96.6804C52.0341 96.6804 52.0341 96.6804 52.0205 96.6804H44.9893C44.3365 96.6804 43.8197 96.1546 43.8197 95.521C43.8197 94.8739 44.3501 94.3616 44.9893 94.3616H56.1957V90.9375H44.9757C42.9765 90.9375 41.5893 91.288 40.8005 92.0025C40.0933 92.6631 39.6989 93.6067 39.6445 94.8739C39.4133 100.158 42.6637 100.118 44.4317 100.172H44.4453H51.4765C52.1293 100.172 52.6461 100.698 52.6461 101.331C52.6461 101.978 52.1157 102.491 51.4765 102.491H40.2429V105.915H51.5037C53.5029 105.915 54.8901 105.564 55.6789 104.85C56.3861 104.189 56.7669 103.246 56.8349 101.978C56.8349 101.884 57.0525 99.1608 55.7197 97.7858Z" fill="#1D1D1B"/>
</g>
<defs>
<clipPath id="clip0_684_109">
<rect width="136" height="106" fill="white"/>
</clipPath>
</defs>
</svg>
