<svg width="180" height="87" viewBox="0 0 180 87" fill="none" xmlns="http://www.w3.org/2000/svg">
<g clip-path="url(#clip0_684_89)">
<path d="M47.844 15.7096C46.008 7.63761 41.4 1.06782 40.77 0C39.762 1.50218 36.108 7.31184 34.236 13.7368C32.22 20.9039 31.914 27.2746 32.616 33.5367C33.318 39.7988 35.946 46.2419 35.946 46.2419C37.35 49.6264 39.456 53.2461 40.806 55.0198C42.804 52.3955 47.412 44.595 48.852 34.4055C49.644 28.7406 49.662 23.7816 47.844 15.7096ZM40.77 53.0108C39.87 51.3095 38.466 48.0518 38.322 43.0204C38.286 38.17 40.23 34.0073 40.788 33.1385C41.292 34.0073 42.966 37.627 43.164 42.586C43.308 47.4364 41.706 51.2734 40.77 53.0108ZM47.304 29.4283C47.25 32.5051 46.89 35.7628 46.404 37.6994C46.584 34.3512 46.188 29.6274 45.396 25.9353C44.64 22.2432 42.48 16.0897 40.734 13.2301C39.132 15.9449 37.17 21.2659 36.126 25.8991C35.1 30.5323 35.064 36.1248 35.064 37.7899C34.776 36.3782 34.11 31.3287 34.308 26.2611C34.47 22.0803 35.424 17.7909 35.964 15.8001C37.998 9.19409 40.302 4.97712 40.734 4.30747C41.166 4.97712 44.082 10.1714 45.576 15.6372C47.088 21.103 47.376 26.3335 47.304 29.4283ZM43.884 56.902H51.786V77.462C46.332 83.326 38.556 86.9819 29.934 86.9819C13.41 87 0 73.5165 0 56.902C0 40.2875 13.41 26.804 29.934 26.804V49.4273C25.632 49.4273 21.33 51.0743 18.054 54.3863C17.28 55.1646 16.596 56.0152 16.002 56.902C11.592 63.4718 12.276 72.4668 18.054 78.2946C21.33 81.5885 25.632 83.2355 29.934 83.2355C34.218 83.2355 38.52 81.6066 41.778 78.3308C41.796 78.3127 41.814 78.2946 41.832 78.2946C41.85 78.2765 41.85 78.2765 41.868 78.2584C45.144 74.9463 45.144 69.5891 41.868 66.2952C38.592 62.9831 33.246 62.9831 29.97 66.2952C29.97 66.3133 29.952 66.3133 29.934 66.3314V56.9201H43.884V56.902ZM69.462 81.6247C69.462 83.7242 69.21 87 64.998 87H60.03C55.854 87 55.584 83.7242 55.584 81.6247V62.2773C55.584 60.1779 55.836 56.902 60.03 56.902H64.998C69.192 56.902 69.462 60.1779 69.462 62.2773V66.5305H63.468V61.6258C63.468 61.119 63.09 60.6303 62.532 60.6303C62.19 60.6303 61.596 60.8475 61.596 61.6258V82.1496C61.596 82.9278 62.19 83.145 62.532 83.145C63.09 83.145 63.468 82.6744 63.468 82.1496V75.5617H62.568V72.2496H69.48V81.6247H69.462ZM71.856 87L74.97 56.902H84.366L87.48 87H81.612L81.054 79.0004H78.228L77.688 87H71.856ZM78.48 75.6884H80.874L79.83 60.6484H79.488L78.48 75.6884ZM89.712 83.2174L95.454 60.6484H90.306V56.902H101.592V60.6484L95.868 83.145H101.952V87H89.712V83.2174ZM104.76 87V56.902H114.192C118.368 56.902 118.638 60.1779 118.638 62.2773V71.399C118.638 73.4984 118.386 76.7743 114.192 76.7743H110.772V87H104.76ZM110.772 73.0098H111.528C112.194 73.0098 112.644 72.4487 112.644 71.5076V62.1506C112.644 61.2095 112.176 60.6484 111.528 60.6484H110.772V73.0098ZM136.332 87H130.176L128.142 75.8694H127.71V87H121.734V56.902H131.13C135.324 56.902 135.576 60.1779 135.576 62.2773V71.5981C135.576 72.4125 135.54 74.3853 133.416 75.254L136.332 87ZM127.692 72.1229H128.466C129.114 72.1229 129.564 71.5619 129.564 70.6208V62.1506C129.564 61.2095 129.096 60.6484 128.466 60.6484H127.692V72.1229ZM139.554 81.6247V62.2773C139.554 60.1779 139.806 56.902 144.018 56.902H148.968C153.162 56.902 153.432 60.1779 153.432 62.2773V81.6247C153.432 83.7242 153.18 87 148.968 87H144.018C139.824 87 139.554 83.7423 139.554 81.6247ZM147.42 82.1496V61.6258C147.42 61.119 147.042 60.6303 146.484 60.6303C146.142 60.6303 145.548 60.8475 145.548 61.6258V82.1496C145.548 82.9278 146.142 83.145 146.484 83.145C147.042 83.145 147.42 82.6744 147.42 82.1496ZM172.224 56.902H180V87H174.024V68.1232H173.808L170.73 87H165.942L162.864 68.1232H162.648V87H156.672V56.902H164.448L168.336 78.0593L172.224 56.902Z" fill="#007EBF"/>
</g>
<defs>
<clipPath id="clip0_684_89">
<rect width="180" height="87" fill="white"/>
</clipPath>
</defs>
</svg>
