<svg width="144" height="64" viewBox="0 0 144 64" fill="none" xmlns="http://www.w3.org/2000/svg">
<g clip-path="url(#clip0_684_130)">
<path d="M101.989 5.66409V7.97582H122.002C123.313 7.97582 125.331 7.97582 126.665 9.30989C127.999 10.6497 127.999 12.6394 127.999 14.008V34.0138C127.999 35.3077 127.999 37.3376 126.665 38.6601C125.331 39.9885 123.313 39.9885 122.002 39.9885H112.332C110.67 39.9885 108.492 39.9885 107.646 38.1483C106.836 36.3254 108.003 34.6693 109.003 33.341L122.002 15.9977H101.989L94.0203 26.6589C92.6693 28.4818 91.5078 29.9827 91.5078 31.9896C91.5078 34.0138 92.5774 35.4572 94.0203 37.3376L96.0096 39.9885C97.9818 42.6739 99.9883 45.3364 102.656 46.659C105.335 47.9873 108.492 47.9873 112.838 47.9873H121.508C126.487 47.9873 134.007 47.9873 139.003 43.0017C143.999 37.9873 143.999 30.6728 143.999 27.9931V19.9942C143.999 17.3088 143.999 10 139.003 4.98557C134.007 0 126.487 0 121.508 0H107.646C106.341 0 104.651 0 103.323 1.32828C101.989 2.64515 101.989 4.30704 101.989 5.66409Z" fill="#EE3524"/>
<path d="M77.9861 16H97.982L73.9902 48.0012H53.9883L77.9861 16Z" fill="#EE3524"/>
<path d="M0 21.6641C0 20.3243 0 18.6452 1.32785 17.3111C2.67324 16 4.31761 16 5.66301 16H39.147C43.4934 16 46.6786 16 49.335 17.3111C51.991 18.6452 53.986 21.3191 56.0097 23.9873L57.9818 26.6555C59.4191 28.5532 60.5059 29.985 60.5059 31.9862C60.5059 34.0103 59.3444 35.5285 57.9818 37.3399L49.9845 48.0011H29.9942L42.9933 30.675C43.9994 29.3468 45.1725 27.6734 44.3331 25.8102C43.4934 23.9873 41.3318 23.9873 39.653 23.9873H24.0146V63.9989H7.99727V23.9873H0V21.6641Z" fill="#EE3524"/>
</g>
<defs>
<clipPath id="clip0_684_130">
<rect width="144" height="64" fill="white"/>
</clipPath>
</defs>
</svg>
